<svg width="23" height="20" viewBox="0 0 23 20" fill="none" xmlns="http://www.w3.org/2000/svg">
<path d="M11.9717 18.1917L20.0717 10.0917C22.0617 8.0917 22.3517 4.8217 20.4717 2.7317C20.0002 2.20501 19.4263 1.77998 18.785 1.48258C18.1437 1.18519 17.4485 1.02166 16.7419 1.00201C16.0353 0.982356 15.3321 1.10698 14.6752 1.36827C14.0184 1.62956 13.4217 2.02203 12.9217 2.5217L11.4017 4.0517L10.0917 2.7317C8.0917 0.7417 4.8217 0.4517 2.7317 2.3317C2.20501 2.80319 1.77998 3.37711 1.48258 4.0184C1.18519 4.65969 1.02166 5.35489 1.00201 6.06151C0.982356 6.76813 1.10698 7.47134 1.36827 8.12817C1.62956 8.78501 2.02203 9.38167 2.5217 9.8817L10.8317 18.1917C10.9834 18.3419 11.1882 18.4262 11.4017 18.4262C11.6152 18.4262 11.82 18.3419 11.9717 18.1917V18.1917Z" stroke="#A1A1A1" stroke-width="1.6" stroke-linecap="round" stroke-linejoin="round"/>
</svg>
